<svg xmlns="http://www.w3.org/2000/svg" version="1.1" xmlns:xlink="http://www.w3.org/1999/xlink" xmlns:svgjs="http://svgjs.dev/svgjs" width="1500" height="1687" viewBox="0 0 1500 1687"><g transform="matrix(1,0,0,1,0,0)"><svg viewBox="0 0 320 360" data-background-color="#151515" preserveAspectRatio="xMidYMid meet" height="1687" width="1500" xmlns="http://www.w3.org/2000/svg" xmlns:xlink="http://www.w3.org/1999/xlink"><g id="tight-bounds" transform="matrix(1,0,0,1,0,0)"><svg viewBox="0 0 320 360" height="360" width="320"><g><svg></svg></g><g><svg viewBox="0 0 320 360" height="360" width="320"><g><path d="M160 42.18c72.417 0 131.943 56.114 137.63 127.014h22.37c-1.137-17.82-5.308-34.882-12.133-51.185-7.962-18.957-19.716-36.398-34.502-50.805-14.787-14.787-31.848-26.161-50.806-34.503-20.095-8.341-40.948-12.891-62.559-12.891-21.611 0-42.464 4.171-62.559 12.512-18.957 7.962-36.398 19.716-50.806 34.503-14.787 14.787-26.161 31.848-34.502 50.805-6.825 16.303-10.995 33.744-12.133 51.185h22.37c5.687-70.521 65.213-126.635 137.63-126.635zM160 318.199c-72.417 0-131.943-56.114-137.63-127.014h-22.37c1.137 17.82 5.308 34.882 12.133 51.185 7.962 18.957 19.716 36.398 34.502 50.805 14.787 14.787 31.848 26.161 50.806 34.503 19.716 8.341 40.569 12.512 62.559 12.512 21.991 0 42.464-4.171 62.559-12.512 18.957-7.962 36.398-19.716 50.806-34.503 14.787-14.787 26.161-31.848 34.502-50.805 6.825-16.303 10.995-33.744 12.133-51.185h-22.37c-5.687 70.9-65.213 127.014-137.63 127.014z" fill="#000000" fill-rule="nonzero" stroke="none" stroke-width="1" stroke-linecap="butt" stroke-linejoin="miter" stroke-miterlimit="10" stroke-dasharray="" stroke-dashoffset="0" font-family="none" font-weight="none" font-size="none" text-anchor="none" style="mix-blend-mode: normal" data-fill-palette-color="tertiary"></path></g><g transform="matrix(1,0,0,1,114.41389290882779,90)"><svg viewBox="0 0 91.1722141823444 180" height="180" width="91.1722141823444"><g><svg viewBox="0 0 91.17221418234442 180.00000000000003" height="180" width="91.1722141823444"><g><svg viewBox="0 0 91.17221418234442 180.00000000000003" height="180.00000000000003" width="91.17221418234442"><g id="textblocktransform"><svg viewBox="0 0 91.17221418234442 180.00000000000003" height="180.00000000000003" width="91.17221418234442" id="textblock"><g><svg viewBox="0 0 91.17221418234442 180.00000000000003" height="180.00000000000003" width="91.17221418234442"><g transform="matrix(1,0,0,1,0,0)"><svg width="91.17221418234442" viewBox="3 -34.55 17.5 34.55" height="180.00000000000003" data-palette-color="#88ce52"><path d="M3-34.55L9.35-34.55 9.35-5.25 20.5-5.25 19.8 0 3 0 3-34.55Z" opacity="1" transform="matrix(1,0,0,1,0,0)" fill="#88ce52" class="wordmark-text-0" data-fill-palette-color="primary" id="text-0"></path></svg></g></svg></g></svg></g></svg></g><g></g></svg></g></svg></g></svg></g><defs></defs></svg><rect width="320" height="360" fill="none" stroke="none" visibility="hidden"></rect></g></svg></g></svg>